# xmcd CD database file
#
# Track frame offsets:
#	150
#	11348
#	29706
#	48233
#	59608
#	70213
#	89224
#	102041
#	110766
#	121583
#	137673
#	148304
#	160463
#	178209
#	194051
#
# Disc length: 2728 seconds
#
# Revision: 1
# Processed by: cddbd v1.5.2PL0 Copyright (c) Steve Scherf et al.
# Submitted via: CDex 1.51
#
DISCID=e70aa60f
DTITLE=Montgomery - Nejlepsi Trampske Pisne
DYEAR=2006
DGENRE=Country
TTITLE0=Stara Pacificka
TTITLE1=Montgomery
TTITLE2=Pisen Domorodce
TTITLE3=Raj Tulaku
TTITLE4=Zuzana
TTITLE5=Ascalona
TTITLE6=Chajda Mala
TTITLE7=Cesta Do Osady
TTITLE8=Tramp Kapitan
TTITLE9=Muj Wigwam
TTITLE10=Na Okor Je Cesta
TTITLE11=Aljaska (Pri Polarni Zari)
TTITLE12=Mananalo
TTITLE13=Sbohem Kapitane
TTITLE14=Ruty Suty
EXTD=YEAR: 2006
EXTT0=
EXTT1=
EXTT2=
EXTT3=
EXTT4=
EXTT5=
EXTT6=
EXTT7=
EXTT8=
EXTT9=
EXTT10=
EXTT11=
EXTT12=
EXTT13=
EXTT14=
PLAYORDER=
